<svg width="18" height="19" viewBox="0 0 18 19" fill="none" xmlns="http://www.w3.org/2000/svg">
<path fill-rule="evenodd" clip-rule="evenodd" d="M6.59666 4.33256C6.82081 4.30914 7.04822 4.29714 7.27833 4.29714C10.3562 4.29714 12.9505 6.44358 13.7452 9.37162C13.8088 9.36749 13.8728 9.3648 13.9371 9.36359C13.9109 9.36314 13.8847 9.36291 13.8585 9.36291L13.8372 9.36296L13.8372 9.36284H14.8083H14.8464V9.36252C16.0528 9.34216 17.0245 8.35786 17.0245 7.1466C17.0245 5.9226 16.0323 4.93035 14.8083 4.93035C14.3973 4.93035 14.0125 5.04221 13.6826 5.23715C13.6816 4.88335 13.6278 4.54196 13.5288 4.22043C13.0354 2.79102 11.6781 1.76429 10.0811 1.76429C8.44253 1.76429 7.05641 2.84503 6.59666 4.33256ZM16.5032 10.1897C17.5857 10.9939 18.291 12.3092 18.291 13.7953C18.291 16.2433 16.3772 18.2278 14.0164 18.2278C13.9635 18.2278 13.9109 18.2268 13.8585 18.2248V18.2278H7.37891V18.2271C7.34545 18.2276 7.31192 18.2278 7.27833 18.2278C3.56847 18.2278 0.561035 15.1093 0.561035 11.2625C0.561035 8.15615 2.52205 5.52475 5.23042 4.62677C5.60578 2.28609 7.63459 0.497864 10.0811 0.497864C12.1801 0.497864 13.9716 1.81421 14.6753 3.66642C14.7194 3.66476 14.7638 3.66393 14.8083 3.66393C16.7317 3.66393 18.291 5.22317 18.291 7.1466C18.291 8.45475 17.5697 9.59444 16.5032 10.1897ZM13.8585 16.9614H7.37891H7.30603V16.9613L7.27833 16.9614C4.31079 16.9614 1.82746 14.4536 1.82746 11.2625C1.82746 8.07138 4.31079 5.56356 7.27833 5.56356C9.79572 5.56356 11.9647 7.36825 12.5648 9.8638L12.5667 9.86302C12.6514 10.2093 12.7055 10.5683 12.7256 10.9367C13.1201 10.7389 13.5591 10.6293 14.0164 10.6293C15.6349 10.6293 17.0246 12.0031 17.0246 13.7953C17.0246 15.575 15.6543 16.9421 14.0503 16.9612V16.9614H13.8585Z" fill="white"/>
</svg>
